<svg xmlns="http://www.w3.org/2000/svg" xmlns:xlink="http://www.w3.org/1999/xlink" width="256" height="320" preserveAspectRatio="xMidYMid" version="1.1" viewBox="0 0 256 320"><g><path fill="#D6FF00" d="M128,0 C57.28,0 0,57.28 0,128 L64,128 C64,92.672 92.672,64 128,64 L128,0 L128,0 Z"/><path fill="#34E27A" d="M256,128 C256,57.28 198.72,0 128,0 L128,64 C163.328,64 192,92.672 192,128 L256,128 L256,128 Z"/><path fill="#00B9F1" d="M128,256 C198.72,256 256,198.72 256,128 L192,128 C192,163.328 163.328,192 128,192 L128,256 L128,256 Z"/><path fill="#FFF" d="M64,256 L64,128 L0,128 L0,320 L128,320 L128,256 L64,256 L64,256 Z"/></g></svg>