<svg width="134" height="81" viewBox="0 0 134 81" fill="none" xmlns="http://www.w3.org/2000/svg">
<path d="M31.8446 20.9019H56.8995V22.8933H34.1413V37.8811H55.5423V39.8725H34.1413V56.3277H57.1605V58.3191H31.8446V20.9019ZM59.144 20.9019H61.8061L73.6027 37.3571L85.6604 20.9019L102.061 0L75.1164 39.0865L89.001 58.3191H86.2345L73.6027 40.8158L60.9187 58.3191H58.2044L72.1934 39.0865L59.144 20.9019ZM89.9928 22.8933V20.9019H118.545V22.8933H105.391V58.3191H103.094V22.8933H89.9928ZM0.5 20.9019H3.37087L42.9584 80.1409L26.5988 58.3191L2.90109 23.7318L2.79669 58.3191H0.5L0.5 20.9019ZM118.313 55.7268C117.844 55.7268 117.492 55.3632 117.492 54.8934C117.492 54.4235 117.844 54.0599 118.313 54.0599C118.788 54.0599 119.135 54.4235 119.135 54.8934C119.135 55.3632 118.788 55.7268 118.313 55.7268ZM120.57 53.5342H121.799C121.816 54.1998 122.302 54.6472 123.017 54.6472C123.816 54.6472 124.268 54.1662 124.268 53.2657V47.5605H125.519V53.2713C125.519 54.8934 124.581 55.8274 123.028 55.8274C121.57 55.8274 120.57 54.9213 120.57 53.5342ZM127.156 53.4615H128.396C128.502 54.2277 129.251 54.7144 130.329 54.7144C131.335 54.7144 132.072 54.1942 132.072 53.4782C132.072 52.863 131.603 52.4938 130.536 52.2421L129.497 51.9904C128.039 51.6492 127.374 50.9444 127.374 49.7586C127.374 48.3211 128.547 47.3647 130.307 47.3647C131.943 47.3647 133.139 48.3211 133.212 49.6803H131.994C131.876 48.9364 131.228 48.4722 130.29 48.4722C129.301 48.4722 128.642 48.9476 128.642 49.6747C128.642 50.2509 129.067 50.5809 130.117 50.827L131.005 51.0451C132.658 51.4311 133.34 52.1023 133.34 53.316C133.34 54.8598 132.145 55.8274 130.234 55.8274C128.447 55.8274 127.246 54.9045 127.156 53.4615Z" fill="white"/>
</svg>
