<svg width="3283" height="770" viewBox="0 0 3283 770" fill="none" xmlns="http://www.w3.org/2000/svg">
<path d="M1059.06 181.875C886.56 181.875 762.18 294.375 762.18 463.125C762.18 631.875 902.03 744.375 1074.69 744.375C1178.9 744.375 1270.78 703.125 1327.65 633.594L1208.12 564.531C1176.56 599.063 1128.59 619.219 1074.69 619.219C999.84 619.219 936.25 580.156 912.65 517.656H1350.47C1353.9 500.156 1355.94 482.031 1355.94 462.969C1355.94 294.375 1231.72 181.875 1059.06 181.875ZM911.4 408.437C930.93 346.094 984.37 306.875 1059.06 306.875C1133.9 306.875 1187.34 346.094 1206.72 408.437H911.4ZM876.09 10L443.12 760L10 10H172.34L442.97 478.75L713.59 10H876.09ZM1984.06 463.125C1984.06 556.875 2045.31 619.375 2140.31 619.375C2204.69 619.375 2252.97 590.156 2277.81 542.5L2397.81 611.719C2348.12 694.531 2255 744.375 2140.31 744.375C1967.65 744.375 1843.44 631.875 1843.44 463.125C1843.44 294.375 1967.81 181.875 2140.31 181.875C2255 181.875 2347.97 231.719 2397.81 314.531L2277.81 383.75C2252.97 336.094 2204.69 306.875 2140.31 306.875C2045.47 306.875 1984.06 369.375 1984.06 463.125ZM3272.81 10V728.75H3132.19V10H3272.81ZM2741.56 181.875C2569.06 181.875 2444.69 294.375 2444.69 463.125C2444.69 631.875 2584.69 744.375 2757.19 744.375C2861.4 744.375 2953.28 703.125 3010.15 633.594L2890.62 564.531C2859.06 599.063 2811.09 619.219 2757.19 619.219C2682.34 619.219 2618.75 580.156 2595.15 517.656H3032.97C3036.4 500.156 3038.43 482.031 3038.43 462.969C3038.43 294.375 2914.22 181.875 2741.56 181.875ZM2593.9 408.437C2613.44 346.094 2666.72 306.875 2741.56 306.875C2816.4 306.875 2869.84 346.094 2889.22 408.437H2593.9ZM1796.56 197.5V348.906C1780.94 344.375 1764.37 341.25 1746.56 341.25C1655.78 341.25 1590.31 403.75 1590.31 497.5V728.75H1449.69V197.5H1590.31V341.25C1590.31 261.875 1682.65 197.5 1796.56 197.5Z" fill="white"/>
</svg>
